OpenSim_Sub05_CSBaseline_GRF.mot
version=1
nRows=69
nColumns=19
inDegrees=no
endheader
time	lFx	lFy	lFz	lCOPx	lCOPy	lCOPz	rFx	rFy	rFz	rCOPx	rCOPy	rCOPz	lMx	lMy	lMz	rMx	rMy	rMz
26.39000000	40.61818173	819.16949645	96.03711396	0.80075996	0	-0.69221033	0.04351201	-0.42005578	-0.22200240	0.00015108	0	-0.00005590	0	-7.77262257	0	0	-0.00024661	0.00000000
26.40000000	40.30200235	813.04383896	96.92676430	0.79919823	0	-0.69321929	0.06113359	-0.50669846	-0.19502544	0.00059055	0	-0.00020678	0	-7.88843498	0	0	-0.00060538	-0.00000000
26.41000000	38.91955256	803.14197038	96.88389035	0.79780835	0	-0.69406628	0.13295609	-0.49993086	-0.17517955	0.00123352	0	-0.00042053	0	-7.99085574	0	0	-0.00091666	-0.00000000
26.42000000	37.15111400	789.95777521	95.59595037	0.79644896	0	-0.69468870	0.29780544	-0.46982767	-0.12908009	0.00153390	0	-0.00050228	0	-8.01527290	0	0	-0.00050842	0.00000000
26.43000000	35.90517214	773.79286159	93.10669613	0.79495483	0	-0.69502730	0.52918593	-0.55010536	-0.12814498	0.00001463	0	0.00005821	0	-7.94013323	0	0	0.00192069	0.00000000
26.44000000	35.66915811	754.77878351	89.54750569	0.79321319	0	-0.69509648	0.66795080	-0.83551882	-0.17614840	-0.00577163	0	0.00208264	0	-7.68598029	0	0	0.00780299	-0.00000000
26.45000000	36.31266403	732.37045949	85.07065355	0.79101791	0	-0.69486664	0.23940756	-1.27909857	-0.25482783	-0.01771009	0	0.00614978	0	-7.22894332	0	0	0.01658525	0.00000000
26.46000000	37.40978836	705.38732789	79.67211382	0.78821879	0	-0.69428815	-1.54139242	-1.39704910	-0.27725095	-0.03228741	0	0.01091421	0	-6.56373041	0	0	0.02114398	-0.00000000
26.47000000	38.34948883	672.42143522	73.22130613	0.78491816	0	-0.69335325	-5.29176540	0.06397267	-0.01170943	-0.03160819	0	0.01006584	0	-5.70683490	0	0	0.00178725	-0.00000000
26.48000000	38.53640531	632.25593095	65.66444730	0.78153123	0	-0.69198863	-10.28545537	5.48577395	0.83930911	0.02574491	0	-0.01059534	0	-4.67362833	0	0	-0.07470850	0.00000000
26.49000000	37.68720782	584.18433338	56.98564461	0.77832818	0	-0.69011283	-14.08705086	19.85725853	2.36313754	0.19860465	0	-0.07057817	0	-3.38539125	0	0	-0.23530011	0
26.50000000	35.85622607	528.21302818	47.43182916	0.77526234	0	-0.68779852	-12.86928389	51.19675881	4.42895060	0.50988275	0	-0.17571268	0	-1.86804430	0	0	-0.43646500	0
26.51000000	32.93974211	465.50033764	37.66725395	0.77255401	0	-0.68537588	-4.38899440	106.48882748	5.81931641	0.83492909	0	-0.28067649	0	-0.31661358	0	0	-0.53691036	0
26.52000000	28.81690675	398.29307208	28.51851761	0.77115350	0	-0.68358950	4.89152137	182.50038399	4.38796014	1.02600775	0	-0.33983295	0	1.09244086	0	0	-0.70100774	0
26.53000000	23.41322200	329.61066976	20.61899020	0.77221390	0	-0.68336534	4.78427337	265.10861515	-0.77680548	1.09165555	0	-0.35932785	0	2.25342620	0	0	-0.82503506	0.00000000
26.54000000	16.65803968	263.16307415	14.28489322	0.77610784	0	-0.68511422	-5.91125797	339.96818670	-9.58466967	1.09389493	0	-0.35880234	0	3.09236004	0	0	-0.85378513	0
26.55000000	8.61994101	202.42856289	9.64139301	0.78130763	0	-0.68656262	-21.04845008	400.48884413	-20.88050314	1.07898276	0	-0.35255060	0	3.56417079	0	0	-0.95695794	0
26.56000000	-0.31590502	149.87666407	6.54774090	0.78094198	0	-0.67918847	-35.67640260	447.40578545	-32.59221172	1.06619163	0	-0.34709657	0	3.71535792	0	0	-1.21933149	-0.00000000
26.57000000	-9.21920476	106.60159842	4.67416704	0.75863805	0	-0.64582845	-46.64219841	485.87683948	-43.03336228	1.05863853	0	-0.34393802	0	3.50282781	0	0	-1.52207814	0
26.58000000	-16.50395974	72.54925219	3.66834978	0.69114101	0	-0.56565731	-52.48152664	522.43881789	-52.05929929	1.05414454	0	-0.34251640	0	2.85578250	0	0	-1.85210411	0
26.59000000	-20.30755741	46.50244084	3.06771804	0.56391839	0	-0.43520703	-53.99157185	560.55437939	-59.94382750	1.04997126	0	-0.34197253	0	1.89545404	0	0	-2.18239486	0
26.60000000	-19.42872106	26.76469890	2.53199285	0.38080911	0	-0.27442866	-52.32969886	599.92002573	-66.37875230	1.04527345	0	-0.34172511	0	0.89751140	0	0	-2.42123163	0
26.61000000	-14.70170347	12.38304922	1.97900480	0.18564190	0	-0.12405312	-49.15113566	638.75762321	-70.84251913	1.04023645	0	-0.34152777	0	0.22838331	0	0	-2.55602794	0
26.62000000	-9.38755925	3.27239692	1.64507435	0.05017903	0	-0.02824121	-46.11139303	675.38680858	-73.45993984	1.03517627	0	-0.34134446	0	-0.05257015	0	0	-2.62212364	-0.00000000
26.63000000	-5.67419914	-1.35586946	1.50592409	-0.00847894	0	0.00993363	-43.79871263	708.08163659	-74.94983801	1.03027103	0	-0.34118259	0	-0.10263723	0	0	-2.65738581	0
26.64000000	-3.92911641	-2.91149382	1.54038551	-0.02007314	0	0.01546114	-41.96180736	735.45514573	-76.21368912	1.02554657	0	-0.34094970	0	-0.06893229	0	0	-2.74608949	0.00000000
26.65000000	-3.49775180	-2.95388184	1.60944086	-0.01395667	0	0.00985260	-40.29600433	756.90057259	-78.22591645	1.02093068	0	-0.34052640	0	-0.02853918	0	0	-2.94380341	0
26.66000000	-3.65793746	-2.55869111	1.55574669	-0.00596495	0	0.00387053	-38.68339024	772.44660057	-81.63038550	1.01645181	0	-0.33991362	0	-0.00484328	0	0	-3.22285206	0
26.67000000	-3.98388416	-2.18904203	1.46599810	-0.00113118	0	0.00052397	-37.20404100	782.47940488	-85.80224721	1.01223367	0	-0.33914195	0	0.00361937	0	0	-3.50418867	0.00000000
26.68000000	-4.30438581	-2.05399200	1.34380581	0.00066058	0	-0.00059806	-35.91338549	787.31542522	-89.63701729	1.00824886	0	-0.33828820	0	0.00419698	0	0	-3.78630870	0.00000000
26.69000000	-4.60101147	-2.03489127	1.16942333	0.00083119	0	-0.00062063	-34.78544019	787.65463639	-92.42347067	1.00442025	0	-0.33749101	0	0.00243115	0	0	-3.96718873	0
26.70000000	-4.92251123	-2.00461785	0.98271018	0.00049631	0	-0.00034293	-33.63725114	784.83857938	-93.66435599	1.00068230	0	-0.33680107	0	0.00085435	0	0	-3.99689699	-0.00000000
26.71000000	-5.25119625	-1.94262017	0.80577520	0.00018116	0	-0.00011297	-32.29669236	780.18649719	-93.36245527	0.99698659	0	-0.33623097	0	0.00004806	0	0	-3.97390726	0.00000000
26.72000000	-5.56747168	-1.81437711	0.63456626	0.00001526	0	-0.00000069	-30.64744106	774.53833000	-91.96708963	0.99311353	0	-0.33576366	0	-0.00018652	0	0	-3.94354338	0
26.73000000	-5.88548005	-1.67527949	0.48202316	-0.00003547	0	0.00002923	-28.69390608	768.65690543	-89.95036191	0.98907073	0	-0.33535614	0	-0.00016312	0	0	-3.87999627	0.00000000
26.74000000	-6.19226501	-1.59367227	0.31550958	-0.00003265	0	0.00002377	-26.55974200	763.42395883	-87.83251257	0.98500998	0	-0.33499430	0	-0.00008242	0	0	-3.81384011	0
26.75000000	-6.46502818	-1.58568014	0.14008135	-0.00001702	0	0.00001149	-24.41742797	759.31812433	-86.05032770	0.98097119	0	-0.33466543	0	-0.00002362	0	0	-3.77659436	-0.00000000
26.76000000	-6.71386532	-1.58153267	-0.08049931	-0.00000517	0	0.00000303	-22.44655738	756.25382724	-84.89176007	0.97690205	0	-0.33435480	0	0.00000233	0	0	-3.68603399	0
26.77000000	-6.93819576	-1.52494243	-0.37644155	0.00000026	0	-0.00000055	-20.69720172	753.93701796	-84.44378513	0.97285216	0	-0.33403121	0	0.00000760	0	0	-3.53351151	-0.00000000
26.78000000	-7.14053122	-1.44441172	-0.66140919	0.00000164	0	-0.00000128	-19.20630562	752.00603812	-84.54268421	0.96886471	0	-0.33366577	0	0.00000527	0	0	-3.38509921	0
26.79000000	-7.30246940	-1.42692528	-0.92390639	0.00000165	0	-0.00000112	-17.97401366	750.08179181	-84.95660454	0.96487631	0	-0.33328740	0	0.00000346	0	0	-3.20056340	-0.00000000
26.80000000	-7.41722164	-1.43580640	-1.12018926	0.00000184	0	-0.00000115	-16.89770295	748.04555517	-85.48683660	0.96081434	0	-0.33291816	0	0.00000602	0	0	-2.96664343	0
26.81000000	-7.49327987	-1.42666663	-1.27423512	0.00000247	0	-0.00000152	-15.73542284	746.20937547	-86.01269240	0.95660111	0	-0.33257137	0	0.00001347	0	0	-2.76301084	0.00000000
26.82000000	-7.53205222	-1.38548215	-1.43267036	0.00000225	0	-0.00000142	-14.40904962	745.27802421	-86.56341991	0.95211501	0	-0.33228804	0	0.00002091	0	0	-2.59278880	0
26.83000000	-7.48197814	-1.30471652	-1.52585788	-0.00000195	0	0.00000106	-12.98971754	745.81830518	-87.04916902	0.94731914	0	-0.33211445	0	0.00001276	0	0	-2.39216338	-0.00000000
26.84000000	-7.34451839	-1.30196515	-1.52386538	-0.00001450	0	0.00000869	-11.66325001	747.98789863	-87.24062082	0.94224732	0	-0.33205454	0	-0.00004100	0	0	-2.15356807	-0.00000000
26.85000000	-7.19023253	-1.41450199	-1.43189200	-0.00003710	0	0.00002267	-10.31538283	751.65077274	-87.06078510	0.93695838	0	-0.33208620	0	-0.00017437	0	0	-1.90969608	0
26.86000000	-7.03624434	-1.54784907	-1.26535049	-0.00005865	0	0.00003647	-8.78265478	756.50304551	-86.67454295	0.93158202	0	-0.33219703	0	-0.00037820	0	0	-1.63625172	0
26.87000000	-6.85440437	-1.60840879	-1.08066541	-0.00003876	0	0.00002566	-7.02526545	762.10446392	-86.24103459	0.92614316	0	-0.33237627	0	-0.00049572	0	0	-1.32086593	-0.00000000
26.88000000	-6.63658411	-1.56656970	-0.91201790	0.00010381	0	-0.00005982	-5.13396868	767.96481475	-85.91383544	0.92053623	0	-0.33258313	0	-0.00008224	0	0	-0.97010637	0
26.89000000	-6.39852456	-1.47016993	-0.76295013	0.00046453	0	-0.00028028	-3.03182854	773.56708900	-85.77330255	0.91461205	0	-0.33279615	0	0.00162821	0	0	-0.59310094	0.00000000
26.90000000	-6.13033030	-1.44688590	-0.61432211	0.00102728	0	-0.00063049	-0.64120174	778.62889057	-85.93078317	0.90855574	0	-0.33300369	0	0.00529232	0	0	-0.20241572	0.00000000
26.91000000	-5.80193437	-1.49410652	-0.41612900	0.00138088	0	-0.00086581	1.99168310	783.15989703	-86.32303674	0.90259001	0	-0.33320304	0	0.01001451	0	0	0.13719101	0
26.92000000	-5.36887923	-1.63176835	-0.21183068	0.00032861	0	-0.00025766	4.80268473	787.27817200	-86.80073711	0.89675352	0	-0.33340058	0	0.01056517	0	0	0.39367545	-0.00000000
26.93000000	-4.84799783	-2.01800919	-0.00648411	-0.00423096	0	0.00249490	7.75542226	790.98046920	-87.40171841	0.89093068	0	-0.33363089	0	-0.00565642	0	0	0.61715576	-0.00000000
26.94000000	-4.43750890	-2.82796433	0.20339515	-0.01418797	0	0.00860859	10.97033006	794.26608429	-88.08846439	0.88500340	0	-0.33387936	0	-0.05736409	0	0	0.82105931	-0.00000000
26.95000000	-4.65770868	-3.71987538	0.42778677	-0.02735575	0	0.01687213	14.43659108	797.10222248	-88.94915144	0.87888479	0	-0.33410260	0	-0.15402041	0	0	0.95327572	0.00000000
26.96000000	-6.41484408	-3.46690753	0.60556887	-0.02987840	0	0.01896678	18.00315524	799.36018087	-90.16204419	0.87263947	0	-0.33428716	0	-0.25360951	0	0	1.02946025	0
26.97000000	-10.51703723	0.61071974	0.65876269	0.01233583	0	-0.00596034	21.53292413	800.81369956	-91.65341491	0.86644976	0	-0.33444987	0	-0.19172960	0	0	1.07866527	0
26.98000000	-16.10308135	12.31047152	0.42857321	0.15102897	0	-0.09015162	25.15208681	801.07092130	-93.19658219	0.86036528	0	-0.33460664	0	0.37518260	0	0	1.07056655	0
26.99000000	-19.76067147	37.01728252	-0.17022001	0.41520091	0	-0.25316056	28.96749684	799.54459876	-94.52281472	0.85432264	0	-0.33478857	0	1.87464795	0	0	1.03857979	0
27.00000000	-17.20461764	82.01495041	-1.16201075	0.72257617	0	-0.44737870	32.87591042	795.46697553	-95.24947258	0.84839857	0	-0.33504938	0	4.35423467	0	0	1.04727276	0
27.01000000	-8.75316391	150.96754249	-1.22541374	0.93754658	0	-0.58961449	36.75536520	787.92699931	-95.03608205	0.84263657	0	-0.33545524	0	6.98358234	0	0	1.08333738	-0.00000000
27.02000000	-2.83055229	237.08024749	2.32173381	1.02737756	0	-0.65690812	40.77860267	776.18044135	-93.63738972	0.83690310	0	-0.33602501	0	8.51636364	0	0	1.10486973	0
27.03000000	-6.08228354	326.55180539	10.85464328	1.04048828	0	-0.67514643	45.12573158	759.93858122	-91.09957901	0.83112253	0	-0.33673284	0	8.29672467	0	0	1.15779128	0
27.04000000	-16.20343988	408.14576236	23.69003135	1.02721622	0	-0.67345237	49.72531556	739.35025052	-87.43330277	0.82531446	0	-0.33752218	0	6.52131831	0	0	1.21284291	0
27.05000000	-27.93684017	477.05686343	38.43891192	1.01315416	0	-0.66858633	54.23937407	714.58420626	-82.53263170	0.81959471	0	-0.33827661	0	3.95864261	0	0	1.17625878	0
27.06000000	-37.99342190	532.86541212	52.53664645	1.00463131	0	-0.66619788	58.30692424	685.21855072	-76.47917129	0.81376240	0	-0.33890054	0	1.27899085	0	0	1.06912987	0
27.07000000	-44.19032973	577.24312796	64.34982213	0.99930940	0	-0.66629401	61.76071066	650.09555973	-69.53092082	0.80787370	0	-0.33928388	0	-1.08941892	0	0	0.91641058	0
